<svg fill="none" height="97" viewBox="0 0 96 97" width="96" xmlns="http://www.w3.org/2000/svg"><path d="m47.2258 80.6357c22.1454 0 29.1482-8.7957 29.7209-19.942.0526-1.0227-.1671-2.055-.8739-2.796-2.1445-2.2482-8.9276-6.7553-28.847-6.7553-19.9193 0-26.7025 4.5071-28.847 6.7553-.7068.741-.9265 1.7733-.8739 2.796.5727 11.1463 7.5755 19.942 29.7209 19.942z" fill="#ffac2f"/><path clip-rule="evenodd" d="m76.0876 57.8836 1.4324-1.3663c1.2265 1.2858 1.4924 2.9503 1.4241 4.2791-.3075 5.9845-2.372 11.5826-7.5355 15.6233-5.0884 3.9818-12.8931 6.216-24.1828 6.216s-19.0944-2.2342-24.1828-6.216c-5.1635-4.0407-7.228-9.6388-7.5355-15.6233-.0683-1.3288.1976-2.9933 1.4241-4.2791 2.6959-2.8264 10.1456-7.3749 30.2942-7.3749s27.5983 4.5485 30.2942 7.3749zm.8591 2.8101c-.5727 11.1463-7.5755 19.942-29.7209 19.942s-29.1482-8.7957-29.7209-19.942c-.0526-1.0227.1671-2.055.8739-2.796 2.1445-2.2482 8.9277-6.7553 28.847-6.7553 19.9194 0 26.7025 4.5071 28.847 6.7553.7068.741.9265 1.7733.8739 2.796z" fill="#af5826" fill-rule="evenodd"/><path clip-rule="evenodd" d="m76.9467 60.6937c-.5727 11.1463-7.5755 19.942-29.7209 19.942-9.6129 0-16.3726-1.6574-20.9916-4.4449 3.8313 1.1031 8.8237 1.8175 15.2414 2.021 18.7957.5958 25.6692-3.9571 27.042-10.1712.3096-1.4012-.1799-2.8259-1.4203-3.5475-2.6475-1.5404-9.2291-3.8892-25.0477-4.3906-14.3296-.4543-21.1906 1.0844-24.3918 2.3962-.0712-.5939-.1216-1.196-.1529-1.805-.0526-1.0227.1671-2.0551.8739-2.7961 2.1445-2.2482 8.9276-6.7553 28.847-6.7553 19.9193 0 26.7025 4.5071 28.847 6.7553.7068.741.9265 1.7734.8739 2.7961z" fill="#ce8415" fill-rule="evenodd"/><path d="m17.4658 60.1423c0 6.0752 13.3132 11 29.7359 11 16.4226 0 29.7358-4.9248 29.7358-11 0-6.0751-13.3132-11-29.7358-11-16.4227 0-29.7359 4.9249-29.7359 11z" fill="#884c05"/><g clip-rule="evenodd" fill-rule="evenodd"><path d="m25.4814 69.7963c5.6555 2.0921 13.3352 3.346 21.7203 3.346 8.385 0 16.0647-1.2539 21.7203-3.346 2.82-1.0432 5.2419-2.3332 6.9954-3.8668 1.7494-1.53 3.0201-3.4801 3.0201-5.7872 0-2.307-1.2707-4.2571-3.0201-5.7871-1.7535-1.5336-4.1754-2.8236-6.9954-3.8668-5.6556-2.0922-13.3353-3.3461-21.7203-3.3461-8.3851 0-16.0648 1.2539-21.7203 3.3461-2.8201 1.0432-5.242 2.3332-6.9955 3.8668-1.7493 1.53-3.0201 3.4801-3.0201 5.7871 0 2.3071 1.2708 4.2572 3.0201 5.7872 1.7535 1.5336 4.1754 2.8236 6.9955 3.8668zm21.7203 1.346c-16.4227 0-29.7359-4.9248-29.7359-11 0-6.0751 13.3132-11 29.7359-11 16.4226 0 29.7358 4.9249 29.7358 11 0 6.0752-13.3132 11-29.7358 11z" fill="#602902"/><path d="m74.1371 62.6925c-.2829-.4743-.8967-.6295-1.3711-.3466-2.2641 1.3506-8.7998 4.2479-16.3646 4.7359-.5511.0356-.9691.5112-.9335 1.0623.0356.5512.5112.9691 1.0623.9336 7.9352-.512 14.7746-3.5314 17.2604-5.0141.4743-.283.6295-.8968.3465-1.3711z" fill="#602902"/><path d="m53.2828 51.9016c-.064.8259.5537 1.5473 1.3797 1.6113 1.68.1302 4.3131 1.1213 7.0481 2.7211 2.7048 1.5822 5.2814 3.6268 6.8936 5.6544.5156.6485 1.4592.7562 2.1077.2406.6484-.5156.7561-1.4592.2405-2.1076-1.9161-2.4099-4.8224-4.6778-7.727-6.3769-2.8744-1.6814-5.9771-2.9403-8.3312-3.1226-.826-.064-1.5474.5537-1.6114 1.3797z" fill="#441a03"/><path d="m28.6328 54.165c-.1946.8052.3003 1.6158 1.1055 1.8104 1.992.4816 5.3859 2.2958 8.8163 4.6051 3.4033 2.291 6.5591 4.8769 8.1115 6.7167.5342.6332 1.4805.7134 2.1137.1792.6332-.5343.7134-1.4806.1791-2.1138-1.8226-2.1601-5.2526-4.9305-8.729-7.2707-3.4491-2.322-7.2286-4.414-9.7866-5.0325-.8052-.1946-1.6158.3003-1.8105 1.1056z" fill="#441a03"/><path d="m27.5317 62.1461c2.279 1.4967 4.5988 3.4749 6.2856 5.3689.551.6186 1.4992.6735 2.1178.1225.6187-.551.6735-1.4992.1225-2.1178-1.8757-2.1061-4.3995-4.2528-6.8791-5.8812-1.2421-.8157-2.501-1.5198-3.6875-2.0248-1.1627-.4949-2.3655-.8464-3.4627-.8464-.8284 0-1.5.6716-1.5 1.5 0 .8285.6716 1.5 1.5 1.5.5136 0 1.2846.1798 2.2878.6068.9793.4168 2.0784 1.0252 3.2156 1.772z" fill="#441a03"/><path d="m38.6328 51.4213c-.1947.8052.3003 1.6158 1.1055 1.8105 2.0194.4882 5.897 2.4149 9.7956 4.8554 3.8992 2.441 7.4603 5.1725 8.9723 7.1045.5106.6524 1.4534.7674 2.1058.2568.6523-.5106.7673-1.4533.2568-2.1057-1.863-2.3805-5.8253-5.3458-9.7431-7.7984-3.9186-2.4531-8.1517-4.6168-10.6824-5.2286-.8052-.1947-1.6158.3003-1.8105 1.1055z" fill="#441a03"/></g><path d="m13.4375 52.7673c7.375 3.625 27.125 5.875 35.25 9 9.375-4.125 27.875-4.875 33.875-9.875-7.1-8.4-26.5417-13.2083-34.5-15-20.9 4.7-31.9583 11.8334-34.625 15.875z" fill="#ffd028"/><path clip-rule="evenodd" d="m49.493 63.598c-.4832.2126-1.0308.2255-1.5234.036-3.5237-1.3552-9.441-2.5601-15.7541-3.8455-.6086-.1239-1.2209-.2486-1.835-.3742-3.437-.7031-6.8936-1.4303-9.9609-2.213-3.0402-.7758-5.8252-1.6368-7.8643-2.6391-.5155-.2533-.8972-.7161-1.0478-1.2704-.1506-.5542-.0557-1.1465.2606-1.6259 1.6301-2.4705 5.4523-5.4581 11.2448-8.3754 5.88-2.9615 14.0287-5.9697 24.6108-8.3494.2891-.065.589-.065.8781.0001 4.0039.9014 10.9551 2.5739 17.822 5.0956 6.7704 2.4862 13.8512 5.9327 17.7662 10.5645.3439.4069.5113.9343.4649 1.4651-.0464.5309-.3027 1.0213-.712 1.3624-1.8161 1.5134-4.4132 2.5909-7.1984 3.4474-2.827.8694-6.0797 1.5772-9.3562 2.2418-.864.1753-1.7275.3475-2.5858.5186-5.7921 1.1547-11.3482 2.2624-15.2095 3.9614zm-34.7253-12.4149c4.1412-4.1394 14.9105-10.1565 33.2948-14.2908 7.4879 1.6858 25.1415 6.0421 33.1164 13.5478.501.4716.9639.9557 1.3836 1.4522-.4806.4005-1.0414.7738-1.6713 1.1237-3.8118 2.1173-10.1536 3.3795-16.5626 4.6551-5.7536 1.1452-11.5614 2.3012-15.6411 4.0962-3.6908-1.4195-9.7804-2.6585-16.0192-3.9279-6.4533-1.3129-13.0662-2.6584-17.349-4.2698-.6915-.2601-1.3223-.5272-1.8818-.8023.321-.4865.7636-1.0177 1.3302-1.5842z" fill="#d7aa0c" fill-rule="evenodd"/><path d="m76.9375 43.1423c0 3.446-3.5156 7.302-9.125 9.375-5.75 2.125-13.2077 2.75-20.6108 2.75-7.4032 0-15.2615-1.7044-20.5767-2.75-7.625-1.5-9.1592-6.0384-9.1592-9.375 0-6.0751 13.3132-11 29.7359-11 16.4226 0 29.7358 4.9249 29.7358 11z" fill="#f02b1e"/><path clip-rule="evenodd" d="m25.4814 33.4884c5.6555-2.0922 13.3352-3.3461 21.7203-3.3461 8.385 0 16.0647 1.2539 21.7203 3.3461 2.82 1.0432 5.2419 2.3332 6.9954 3.8668 1.7494 1.53 3.0201 3.4801 3.0201 5.7871 0 2.4022-1.21 4.6969-3.0129 6.584-1.8219 1.907-4.3754 3.5423-7.4188 4.667-6.0942 2.2522-13.8445 2.874-21.3041 2.874-6.9751 0-14.3126-1.4629-19.5272-2.5026-.4987-.0994-.9779-.1949-1.4355-.285-4.1727-.8208-6.9405-2.5328-8.6387-4.7424-1.6828-2.1896-2.1345-4.6328-2.1345-6.595 0-2.307 1.2708-4.2571 3.0201-5.7871 1.7535-1.5336 4.1754-2.8236 6.9955-3.8668zm42.3311 19.0289c5.6094-2.073 9.125-5.929 9.125-9.375 0-6.0751-13.3132-11-29.7358-11-16.4227 0-29.7359 4.9249-29.7359 11 0 3.3366 1.5342 7.875 9.1592 9.375.4581.0902.9352.1852 1.4292.2836 5.2373 1.0432 12.3824 2.4664 19.1475 2.4664 7.4031 0 14.8608-.625 20.6108-2.75z" fill="#a41006" fill-rule="evenodd"/><path d="m15.9375 38.1423c-2.125 3.375-1.3594 7.302 4.25 9.375 2.9456 1.0886 7.8184.1436 13.0625.5625 4.9928.3989 4.8266 2.0625 12.25 3 4.0703.5141 8.0512-1.6208 13.75-3 4.6945-1.1361 12.25 1 15.125-.5 6.8898-3.5946 4.625-6.625 3.125-10.0625-1.9248-4.4108-13.8757-10.375-30.2984-10.375-16.4226 0-28.9664 7.3507-31.2641 11z" fill="#32ce24"/><path clip-rule="evenodd" d="m68.509 28.8104c-5.5236-2.1361-12.8629-3.6681-21.3073-3.6681-8.5044 0-16.0079 1.9018-21.7017 4.2868-2.8468 1.1925-5.2658 2.5161-7.1476 3.8047-1.8318 1.2545-3.3147 2.584-4.1074 3.8429-1.3 2.0648-1.8588 4.548-.9543 6.947.8994 2.3852 3.0661 4.2101 6.2035 5.3696 1.8853.6968 4.2219.7025 6.4053.6559.4287-.0091.8594-.0208 1.2925-.0326 1.9112-.0521 3.868-.1053 5.8987.0569 2.0589.1645 3.048.548 4.3899 1.0685.0861.0333.1735.0672.2628.1017 1.6279.6283 3.6013 1.3272 7.506 1.8204 2.454.3099 4.7906-.1928 7.0713-.8533.8608-.2493 1.6935-.5133 2.5373-.7809 1.5101-.4788 3.0559-.969 4.8624-1.4062 1.952-.4724 4.6105-.2805 7.5333-.0696l.0972.007c1.4018.1011 2.8581.2004 4.156.1693 1.249-.0299 2.6486-.1802 3.7932-.7774 3.6455-1.902 5.6018-4.031 5.7793-6.7322.0812-1.2366-.2393-2.3651-.5984-3.3021-.2199-.5738-.5212-1.2282-.7877-1.8068-.1338-.2906-.2588-.562-.3602-.7945-.6911-1.5836-2.135-3.0408-3.9057-4.3083-1.8142-1.2986-4.1589-2.5315-6.9184-3.5987zm-48.3215 18.7069c-5.6094-2.073-6.375-6-4.25-9.375 2.2978-3.6493 14.8415-11 31.2642-11 16.4226 0 28.3736 5.9642 30.2983 10.375.1379.3159.2822.6284.4252.9382 1.4138 3.0611 2.7064 5.86-3.5502 9.1243-1.4899.7774-4.2368.5782-7.1911.364-2.7465-.1992-5.6722-.4113-7.9339.136-1.8622.4507-3.5411.9821-5.0995 1.4754-3.2106 1.0162-5.9103 1.8707-8.6505 1.5246-3.9279-.496-5.731-1.1954-7.2977-1.8031-1.3942-.5408-2.6014-1.0091-4.9523-1.1969-2.148-.1716-4.2337-.1143-6.1501-.0617-2.7625.0758-5.1733.1419-6.9124-.5008z" fill="#228a19" fill-rule="evenodd"/><path d="m47.2258 16.9663c-16.0762 0-29.1752 9.2063-29.7409 20.7172-.0252.5114.0781 1.0197.3867 1.4282 1.4418 1.9083 7.4708 7.3479 29.3542 7.3479 21.8835 0 27.9125-5.4396 29.3542-7.3479.3087-.4085.4119-.9168.3868-1.4282-.5657-11.5109-13.6647-20.7172-29.741-20.7172z" fill="#ffac2f"/><path clip-rule="evenodd" d="m25.3937 21.3687c5.7245-3.9986 13.4275-6.4024 21.8321-6.4024 8.4047 0 16.1077 2.4038 21.8322 6.4024 5.719 3.9946 9.5855 9.6873 9.9064 16.2166.0405.8247-.1161 1.8419-.7886 2.732-2.0021 2.6499-8.8212 8.1423-30.95 8.1423s-28.9478-5.4924-30.9499-8.1423c-.6725-.8901-.8291-1.9073-.7886-2.732.3209-6.5293 4.1874-12.222 9.9064-16.2166zm-7.9088 16.3148c.5657-11.5109 13.6647-20.7172 29.7409-20.7172 16.0763 0 29.1753 9.2063 29.741 20.7172.0251.5114-.0781 1.0197-.3868 1.4282-1.4417 1.9083-7.4707 7.3479-29.3542 7.3479-21.8834 0-27.9124-5.4396-29.3542-7.3479-.3086-.4085-.4119-.9168-.3867-1.4282z" fill="#af5826" fill-rule="evenodd"/><path d="m30.2887 30.4372c-3.0953 2.8774-4.9243 5.9418-6.6955 4.0365s-.6978-5.7825 2.3976-8.6599c3.0953-2.8774 7.0403-3.6655 8.8115-1.7602s-1.4183 3.5061-4.5136 6.3836z" fill="#ffbf5f"/><path clip-rule="evenodd" d="m43.3072 46.3983c24.1309-2.7238 27.1128-6.2287 23.5971-16.9431-1.1912-3.6305-3.0647-7.1417-5.8037-10.0148 9.1492 3.4887 15.4768 10.32 15.8662 18.2432.0251.5114-.0781 1.0197-.3868 1.4282-1.4417 1.9083-7.4707 7.348-29.3542 7.348-1.3672 0-2.6725-.0212-3.9186-.0615z" fill="#eb981b" fill-rule="evenodd"/><path d="m42.9375 34.3296c0 1.2771-1.1752 2.3125-2.625 2.3125-1.4497 0-2.625-1.0354-2.625-2.3125 0-1.2772 1.1753-2.3125 2.625-2.3125 1.4498 0 2.625 1.0353 2.625 2.3125z" fill="#ffd494"/><path d="m58.5089 37.759c0 1.2772-1.1753 2.3125-2.625 2.3125-1.4498 0-2.625-1.0353-2.625-2.3125 0-1.2771 1.1752-2.3125 2.625-2.3125 1.4497 0 2.625 1.0354 2.625 2.3125z" fill="#ffd494"/><path d="m28.7052 33.7317c0 .947-.8714 1.7147-1.9463 1.7147-1.075 0-1.9464-.7677-1.9464-1.7147 0-.9469.8714-1.7146 1.9464-1.7146 1.0749 0 1.9463.7677 1.9463 1.7146z" fill="#ffd494"/><path d="m72.8302 34.3296c0 .947-.8714 1.7147-1.9463 1.7147-1.075 0-1.9464-.7677-1.9464-1.7147 0-.9469.8714-1.7146 1.9464-1.7146 1.0749 0 1.9463.7677 1.9463 1.7146z" fill="#ffd494"/><path d="m60.4552 27.0796c0 .947-.8714 1.7147-1.9463 1.7147-1.075 0-1.9464-.7677-1.9464-1.7147 0-.9469.8714-1.7146 1.9464-1.7146 1.0749 0 1.9463.7677 1.9463 1.7146z" fill="#ffd494"/><path d="m41.5802 23.6504c0 .947-.8714 1.7147-1.9463 1.7147-1.075 0-1.9464-.7677-1.9464-1.7147 0-.9469.8714-1.7146 1.9464-1.7146 1.0749 0 1.9463.7677 1.9463 1.7146z" fill="#ffd494"/></svg>